<svg xmlns="http://www.w3.org/2000/svg" width="60" height="60" viewBox="0 0 60 60">
  <g fill="none" fill-rule="evenodd">
    <path fill="#FAFAFA" stroke="#EBEBEB" stroke-width="3" d="M50.6610897,57.7884544 C49.8595949,58.2170985 49.0800629,58.5 46.8722296,58.5 L13.1277704,58.5 C10.9199371,58.5 10.1404051,58.2170985 9.3389103,57.7884544 C8.42178927,57.2979727 7.70202731,56.5782107 7.21154561,55.6610897 C6.78290153,54.8595949 6.5,54.0800629 6.5,51.8722296 L6.5,8.1277704 C6.5,5.91993709 6.78290153,5.14040506 7.21154561,4.3389103 C7.70202731,3.42178927 8.42178927,2.70202731 9.3389103,2.21154561 C10.1404051,1.78290153 10.9199371,1.5 13.1277704,1.5 L46.8722296,1.5 C49.0800629,1.5 49.8595949,1.78290153 50.6610897,2.21154561 C51.5782107,2.70202731 52.2979727,3.42178927 52.7884544,4.3389103 C53.2170985,5.14040506 53.5,5.91993709 53.5,8.1277704 L53.5,51.8722296 C53.5,54.0800629 53.2170985,54.8595949 52.7884544,55.6610897 C52.2979727,56.5782107 51.5782107,57.2979727 50.6610897,57.7884544 Z"/>
    <path fill="#F1403C" fill-rule="nonzero" d="M16.1210938,37 L16.1210938,32.5566406 L18.7578125,32.5566406 C21.7265625,32.5566406 23.7871094,30.6230469 23.7871094,27.7324219 C23.7871094,24.8320312 21.7949219,22.9082031 18.9042969,22.9082031 L13.171875,22.9082031 L13.171875,37 L16.1210938,37 Z M18.1132812,30.2519531 L16.1210938,30.2519531 L16.1210938,25.2421875 L18.1230469,25.2421875 C19.8125,25.2421875 20.7890625,26.140625 20.7890625,27.7421875 C20.7890625,29.3535156 19.8027344,30.2519531 18.1132812,30.2519531 Z M30.90625,37 C35.1347656,37 37.625,34.3730469 37.625,29.9003906 C37.625,25.4277344 35.1347656,22.9082031 30.90625,22.9082031 L25.5253906,22.9082031 L25.5253906,37 L30.90625,37 Z M30.5546875,34.5585938 L28.4746094,34.5585938 L28.4746094,25.3398438 L30.5546875,25.3398438 C33.1523438,25.3398438 34.6171875,26.9609375 34.6171875,29.9101562 C34.6171875,32.9570312 33.1914062,34.5585938 30.5546875,34.5585938 Z M42.4785156,37 L42.4785156,31.453125 L48.2109375,31.453125 L48.2109375,29.1191406 L42.4785156,29.1191406 L42.4785156,25.3398438 L48.7578125,25.3398438 L48.7578125,22.9082031 L39.5292969,22.9082031 L39.5292969,37 L42.4785156,37 Z"/>
  </g>
</svg>
