<svg xmlns="http://www.w3.org/2000/svg" width="60" height="60" viewBox="0 0 60 60">
  <g fill="none" fill-rule="evenodd">
    <path fill="#FAFAFA" stroke="#EBEBEB" stroke-width="3" d="M50.6610897,57.7884544 C49.8595949,58.2170985 49.0800629,58.5 46.8722296,58.5 L13.1277704,58.5 C10.9199371,58.5 10.1404051,58.2170985 9.3389103,57.7884544 C8.42178927,57.2979727 7.70202731,56.5782107 7.21154561,55.6610897 C6.78290153,54.8595949 6.5,54.0800629 6.5,51.8722296 L6.5,8.1277704 C6.5,5.91993709 6.78290153,5.14040506 7.21154561,4.3389103 C7.70202731,3.42178927 8.42178927,2.70202731 9.3389103,2.21154561 C10.1404051,1.78290153 10.9199371,1.5 13.1277704,1.5 L46.8722296,1.5 C49.0800629,1.5 49.8595949,1.78290153 50.6610897,2.21154561 C51.5782107,2.70202731 52.2979727,3.42178927 52.7884544,4.3389103 C53.2170985,5.14040506 53.5,5.91993709 53.5,8.1277704 L53.5,51.8722296 C53.5,54.0800629 53.2170985,54.8595949 52.7884544,55.6610897 C52.2979727,56.5782107 51.5782107,57.2979727 50.6610897,57.7884544 Z"/>
    <path fill="#FF9607" d="M40.860748,19.1900047 C40.9530377,19.4822553 41,19.7869223 41,20.0933988 L41,37 L40.9724998,37.0003241 C40.7236303,39.2501433 38.8161656,41 36.5,41 C34.0147186,41 32,38.9852814 32,36.5 C32,34.0147186 34.0147186,32 36.5,32 C37.0263612,32 37.531615,32.0903714 38.0010919,32.2564447 L38,21.9465946 L25,26.0525946 L25,42 L24.9724998,42.0003241 C24.7236303,44.2501433 22.8161656,46 20.5,46 C18.0147186,46 16,43.9852814 16,41.5 C16,39.0147186 18.0147186,37 20.5,37 C21.0263612,37 21.531615,37.0903714 22.0010919,37.2564447 L22,24.1986619 C22,22.8898224 22.8485192,21.7320466 24.0966059,21.3379139 L37.0966059,17.2326508 C38.6765534,16.73372 40.3618172,17.6100572 40.860748,19.1900047 Z"/>
  </g>
</svg>
